<?xml version="1.0" standalone="no"?>
<!DOCTYPE svg PUBLIC "-//W3C//DTD SVG 20010904//EN"
 "http://www.w3.org/TR/2001/REC-SVG-20010904/DTD/svg10.dtd">
<svg version="1.0" xmlns="http://www.w3.org/2000/svg"
 width="200.000000pt" height="200.000000pt" viewBox="0 0 200.000000 200.000000"
 preserveAspectRatio="xMidYMid meet">
<metadata>
Created by potrace 1.16, written by Peter Selinger 2001-2019
</metadata>
<g transform="translate(0.000000,200.000000) scale(0.100000,-0.100000)"
fill="#FFFFFF" stroke="none">
<path d="M841 1657 c-8 -11 -11 -86 -9 -268 l3 -254 29 -3 c16 -2 32 2 37 10
5 7 9 111 9 231 l0 217 453 0 c430 0 453 -1 481 -19 56 -37 55 -28 56 -533 0
-410 2 -468 16 -482 18 -19 20 -19 45 -6 18 10 19 26 19 488 0 476 0 478 -22
522 -14 26 -41 57 -66 75 l-44 30 -497 3 c-419 2 -500 0 -510 -11z"/>
<path d="M503 1645 c-106 -19 -196 -52 -261 -95 -60 -41 -85 -68 -123 -140
-23 -43 -24 -55 -27 -279 -3 -228 -3 -235 20 -279 18 -35 20 -46 10 -50 -29
-10 -82 -65 -101 -106 -27 -55 -28 -146 -2 -201 67 -146 271 -173 379 -51 16
19 33 44 37 55 6 21 11 21 429 21 457 0 452 -1 444 52 l-3 23 -422 3 -423 2
-6 28 c-23 109 -111 192 -204 192 -26 0 -33 7 -55 50 -24 48 -25 56 -25 246 0
223 6 256 61 317 74 85 202 130 413 147 72 6 135 15 139 19 5 5 7 19 5 32 -3
23 -6 24 -108 26 -58 1 -137 -4 -177 -12z m-198 -924 c41 -23 79 -100 71 -145
-10 -54 -47 -98 -98 -120 -42 -17 -52 -18 -90 -7 -113 34 -149 169 -67 250 51
52 117 60 184 22z"/>
<path d="M383 1120 c-115 -11 -153 -21 -167 -43 -15 -24 5 -52 35 -51 13 1 83
7 155 14 320 31 673 -53 951 -226 40 -25 73 -47 73 -49 0 -1 -13 -29 -30 -60
-74 -140 -1 -302 151 -334 221 -48 372 224 213 383 -53 52 -98 68 -183 64
l-76 -3 -90 56 c-112 70 -165 96 -281 142 -227 89 -511 130 -751 107z m1277
-392 c62 -33 85 -68 85 -133 0 -58 -18 -91 -68 -129 -37 -27 -117 -27 -155 0
-53 40 -74 83 -70 142 4 43 11 59 39 88 31 32 70 51 109 53 9 1 36 -9 60 -21z"/>
</g>
</svg>
