<svg id="Ebene_1" data-name="Ebene 1" xmlns="http://www.w3.org/2000/svg" xmlns:xlink="http://www.w3.org/1999/xlink" viewBox="0 0 341.75 291.17"><defs><style>.cls-1{fill:none;}.cls-2{clip-path:url(#clip-path);}.cls-3{fill:#879600;}.cls-4{clip-path:url(#clip-path-2);}.cls-5{fill:url(#Unbenannter_Verlauf_4);}.cls-6{fill:#fff;}</style><clipPath id="clip-path"><rect class="cls-1" x="0.38" y="-0.13" width="341.37" height="291.3"/></clipPath><clipPath id="clip-path-2"><path class="cls-1" d="M222.75,114.37,193.24,78.32a20.51,20.51,0,0,1-1.53-23.83l24.64-39.63a20.33,20.33,0,0,1,2.79-3.55A19.74,19.74,0,0,1,238.19,6l44.74,11.55a20.2,20.2,0,0,1,15,18.37l3,46.77a20.48,20.48,0,0,1-4.41,14.12,20.15,20.15,0,0,1-8.15,6.07l-42.87,17.36a19.76,19.76,0,0,1-22.79-5.88M233.12-.13a25.24,25.24,0,0,0-21.36,12.05L187.12,51.55a26.06,26.06,0,0,0,1.95,30.29l29.5,36.05a25.14,25.14,0,0,0,29,7.48L290.42,108a25.53,25.53,0,0,0,8.6-5.75,23.44,23.44,0,0,0,1.75-2,26,26,0,0,0,5.61-18l-3-46.77a25.68,25.68,0,0,0-19.12-23.35L239.53.67a25.42,25.42,0,0,0-6.2-.8Z"/></clipPath><linearGradient id="Unbenannter_Verlauf_4" x1="-327.46" y1="555.99" x2="-326.46" y2="555.99" gradientTransform="matrix(154.72, 0, 0, -154.72, 50837.64, 86088.18)" gradientUnits="userSpaceOnUse"><stop offset="0" stop-color="#ffde15"/><stop offset="1" stop-color="#f28a1a"/></linearGradient></defs><g class="cls-2"><path class="cls-3" d="M230.41,288.61,88,291.17a29.69,29.69,0,0,1-27.64-17.85L3,142.9c-7.76-17.64,2.6-38,21.26-41.85L230.62,58.92a29.35,29.35,0,0,1,24.12,5.79l75.59,59.91a30.48,30.48,0,0,1,5.39,42L253.55,276.68a29.53,29.53,0,0,1-23.14,11.93"/></g><g class="cls-4"><rect class="cls-5" x="156.87" y="-21.65" width="174.28" height="172.69" transform="translate(69.13 246.75) rotate(-61)"/></g><g class="cls-2"><path class="cls-6" d="M87.86,241.74h8.79q4.6,0,6.9-1.72,2.69-2,2.68-6.87t-2.58-6.39c-1.44-1-3.57-1.43-6.39-1.43h-9.4Zm0-28.39h8.31q6.92,0,6.91-6.54t-6.67-6.68H87.86ZM68.31,256.44V185.38H97.68q24.67,0,24.67,18.52,0,7.11-4.09,11a21.26,21.26,0,0,1-7.47,4.16,27.55,27.55,0,0,1,7.1,2.24q8.31,4.24,8.31,14.94,0,20.23-29.46,20.23Z"/><path class="cls-6" d="M159.57,214.73q-5.26,0-7,4.54c-.75,1.9-1.13,5.39-1.13,10.45q0,8.53,1.32,11.4c1.25,2.71,3.53,4.06,6.82,4.06a6.56,6.56,0,0,0,6.67-4.54q1.13-2.91,1.13-10.68,0-8.27-1.32-11.17a6.59,6.59,0,0,0-6.48-4.06m-.19-12.84q13.44,0,20.67,8,6.4,7.06,6.4,20.1,0,14.11-7.57,21.28Q171.7,258,159.38,258q-13.4,0-20.63-8-6.39-7.06-6.4-20.43,0-13.78,7.57-21,7.14-6.78,19.46-6.78"/></g><polygon class="cls-6" points="186.92 256.44 203.98 229.43 188 203.8 208.54 203.8 216.53 218.6 224.05 203.8 240.73 203.8 225.37 229 242.85 256.44 222.36 256.44 212.87 239.79 203.61 256.44 186.92 256.44"/><polygon class="cls-6" points="68.57 146.79 72.74 146.79 72.74 160.66 88.56 160.66 88.56 146.79 92.73 146.79 92.73 178.52 88.56 178.52 88.56 163.85 72.74 163.85 72.74 178.52 68.57 178.52 68.57 146.79"/><g class="cls-2"><path class="cls-6" d="M111.24,168.08l-.6,0-1.81.13c-5.33.39-6.92,1.4-6.92,4.41,0,2.53,1,3.58,3.22,3.58,2.11,0,4.17-1.1,6.11-3.28Zm.17,7.42c-2.41,2.62-4.56,3.71-7.31,3.71-3.91,0-6.19-2.31-6.19-6.37,0-3.36,1.42-5.24,4.56-6.15,2-.53,3.44-.74,8.77-1.09v-2c0-3.53-1.25-4.93-4.34-4.93-2.32,0-4.43.57-7.61,2v-3.27a17.23,17.23,0,0,1,7.82-1.93c5.59,0,8.12,2.54,8.12,8.17v14.84h-2.66Z"/><path class="cls-6" d="M121.41,156.48a5.62,5.62,0,0,0,3.31-1.1h.69V159c3.18-2.67,5-3.5,7.56-3.5s4,1.1,4.95,3.76c3.39-2.71,5.71-3.76,8.33-3.76,3.53,0,5.55,2.54,5.55,7v16h-4V162.59c0-2.49-.94-3.71-2.88-3.71s-3.09.43-6.32,2.4v17.24h-4V162.85c0-2.8-.91-4-3-4s-3,.39-6.23,2.4v17.24h-4Z"/><path class="cls-6" d="M162,174.11a10,10,0,0,0,6,2c3.83,0,5.42-2.62,5.42-8.78s-1.38-8.46-4.94-8.46c-2,0-2.93.35-6.49,2.61Zm-4-27.5a5.55,5.55,0,0,0,3.31-1.09H162v13.57c3.26-2.75,5.16-3.57,7.91-3.57,4.94,0,7.86,4.27,7.86,11.56,0,4.5-1,7.64-3.18,9.82a7.65,7.65,0,0,1-5.59,2.31c-2.53,0-4.94-1-7.6-3.09l-.82,2.4H158Z"/><path class="cls-6" d="M197,175.33c-2.88,2.79-5.11,3.88-8.08,3.88a5.47,5.47,0,0,1-5-2.53c-.82-1.26-1.12-2.66-1.12-5.1V156.13l4-.27v15.8c0,3.15,1,4.41,3.39,4.41,2.11,0,3.61-.65,6.45-2.79V156.13l4-.27v22.66h-2.62Z"/><path class="cls-6" d="M207,156.48a5.62,5.62,0,0,0,3.31-1.1H211v3.89c2.62-2.31,5-3.54,7.35-3.76v3.93a20.85,20.85,0,0,0-7.35,1.92v17.16h-4Z"/><path class="cls-6" d="M225,163.2c0,3.62,1.29,5.06,4.6,5.06,3,0,4.39-1.48,4.39-5s-1.25-5-4.47-5S225,159.84,225,163.2M227.86,178a12.09,12.09,0,0,1-2.66-.27,5.07,5.07,0,0,0-2,4c0,2.14,1.93,3.1,6.4,3.1,2.75,0,4.69-.44,5.81-1.27a2.73,2.73,0,0,0,1.11-2.57c0-2.23-1.2-3-4.55-3Zm11.82-19.91a7,7,0,0,0-2.84.53A8.06,8.06,0,0,1,238,163.2c0,5.1-3,7.94-8.46,7.94a10.84,10.84,0,0,1-3.79-.57,3.47,3.47,0,0,0-1,2.27c0,1.22,1,1.88,3,1.88h3.61c6.28,0,8.81,1.79,8.81,6.2,0,4.67-3.48,6.89-10.66,6.89-6.57,0-10.1-2-10.1-5.63,0-2.09,1.21-3.75,3.79-5.19a3.28,3.28,0,0,1-1.9-3c0-1.53.82-2.93,2.54-4.41-1.93-1.48-2.79-3.36-2.79-6.2,0-5,3.18-7.85,8.68-7.85a12.63,12.63,0,0,1,3.22.39h7.57v2.22Z"/></g></svg>